<?xml version="1.0" encoding="utf-8"?>
<!-- Generator: Adobe Illustrator 16.0.0, SVG Export Plug-In . SVG Version: 6.00 Build 0)  -->
<!DOCTYPE svg PUBLIC "-//W3C//DTD SVG 1.1//EN" "http://www.w3.org/Graphics/SVG/1.1/DTD/svg11.dtd">
<svg version="1.1" id="Icon" xmlns="http://www.w3.org/2000/svg" xmlns:xlink="http://www.w3.org/1999/xlink" x="0px" y="0px"
	 width="150px" height="150px" viewBox="0 0 256 256" enable-background="new 0 0 256 256" xml:space="preserve">
<path fill="#01D468" d="M227.253,67.448c-0.894-2.697-3.695-7.212-12.412-7.212H38.458c-5.03,0-9.041,3.187-9.765,7.757
	c-0.525,3.667,1.134,8.422,7.337,10.75l66.379,33.761l-52.442,69.246c-2.588,3.177-3.127,7.383-1.419,10.983
	c1.729,3.537,5.43,5.825,9.431,5.825c1.938,0,3.876-0.53,5.56-1.515c0.21-0.094,0.389-0.205,0.52-0.31l0.679-0.459
	c0.19-0.125,0.33-0.239,0.39-0.314L222.284,79.347C228.787,74.926,227.928,69.556,227.253,67.448z M41.344,70.275H81.16
	c1.434,0,2.717,0.025,3.926,0.085c2.902,0.12,5.724,0.375,8.352,0.754c0.03,0.01,0.064,0.015,0.155,0.025
	c15.584,1.803,25.445,6.099,27.058,11.783l0.01,0.135l0.055,0.05c0.27,0.77,0.304,1.604,0.109,2.533
	c-0.01,0.04-0.015,0.08-0.02,0.13c-0.56,2.507-2.762,5.754-5.055,8.885l-7.478,9.95L41.344,70.275z M123.168,101.469
	c2.952-3.9,6.004-7.942,7.566-12.252c2.443-6.744,0.795-12.892-4.649-17.318c-0.714-0.584-1.439-1.124-2.178-1.624h91.115
	c1.054,0,1.753,0.09,2.202,0.19c-0.189,0.165-0.445,0.365-0.789,0.594L58.463,188.288c-0.26,0.18-0.725,0.224-0.854,0.18
	c0.024-0.08,0.095-0.221,0.26-0.415L123.168,101.469z"/>
</svg>
